<?xml version="1.0" encoding="iso-8859-1"?>
<!-- Generator: Adobe Illustrator 16.0.0, SVG Export Plug-In . SVG Version: 6.00 Build 0)  -->
<!DOCTYPE svg PUBLIC "-//W3C//DTD SVG 1.1//EN" "http://www.w3.org/Graphics/SVG/1.1/DTD/svg11.dtd">
<svg version="1.1" id="Layer_1" xmlns="http://www.w3.org/2000/svg" xmlns:xlink="http://www.w3.org/1999/xlink" x="0px" y="0px"
	 width="31.313px" height="30.387px" viewBox="0 0 31.313 30.387" style="enable-background:new 0 0 31.313 30.387;"
	 xml:space="preserve">
<g>
	<rect x="23.696" y="14.787" width="5.051" height="1.878"/>
	<polygon points="2.931,0 2.931,2.953 4.22,2.555 4.22,1.29 30.022,1.29 30.022,17.738 9.49,17.738 9.423,19.028 31.313,19.028 
		31.313,0 	"/>
	<circle cx="4.983" cy="7.063" r="3.821"/>
	<polygon points="8.227,28.642 8.227,21.839 8.227,21.198 8.227,20.328 8.47,20.328 8.825,13.423 15.415,10.008 14.861,8.94 
		15.022,9.22 22.083,5.178 21.763,4.618 14.713,8.654 14.549,8.337 8.524,11.459 6.374,11.459 4.917,13.148 3.507,11.459 
		0.411,12.034 0.213,18.902 1.526,18.902 1.597,20.328 1.796,20.328 1.796,21.198 1.796,21.839 1.796,28.642 1.533,28.642 0,28.974 
		0,30.387 1.305,30.387 2.829,30.138 2.843,30.387 4.531,30.387 4.531,28.812 4.531,28.642 4.531,21.839 5.492,21.839 5.492,28.642 
		5.492,28.812 5.492,30.387 7.18,30.387 7.194,30.138 8.718,30.387 10.023,30.387 10.023,28.974 8.489,28.642 	"/>
</g>
<g>
</g>
<g>
</g>
<g>
</g>
<g>
</g>
<g>
</g>
<g>
</g>
<g>
</g>
<g>
</g>
<g>
</g>
<g>
</g>
<g>
</g>
<g>
</g>
<g>
</g>
<g>
</g>
<g>
</g>
</svg>
